<svg id="visual" viewBox="0 0 960 540" width="960" height="540" xmlns="http://www.w3.org/2000/svg" xmlns:xlink="http://www.w3.org/1999/xlink" version="1.1"><rect width="960" height="540" fill="#001829"></rect><g><g transform="translate(614 272)"><path d="M0 -61.5L53.3 -30.8L53.3 30.8L0 61.5L-53.3 30.8L-53.3 -30.8Z" stroke="#297EA6" fill="none" stroke-width="2"></path></g><g transform="translate(283 83)"><path d="M0 -54L46.8 -27L46.8 27L0 54L-46.8 27L-46.8 -27Z" stroke="#297EA6" fill="none" stroke-width="2"></path></g><g transform="translate(487 399)"><path d="M0 -43L37.2 -21.5L37.2 21.5L0 43L-37.2 21.5L-37.2 -21.5Z" stroke="#297EA6" fill="none" stroke-width="2"></path></g><g transform="translate(894 252)"><path d="M0 -32L27.7 -16L27.7 16L0 32L-27.7 16L-27.7 -16Z" stroke="#297EA6" fill="none" stroke-width="2"></path></g><g transform="translate(366 251)"><path d="M0 -46L39.8 -23L39.8 23L0 46L-39.8 23L-39.8 -23Z" stroke="#297EA6" fill="none" stroke-width="2"></path></g><g transform="translate(172 416)"><path d="M0 -35L30.3 -17.5L30.3 17.5L0 35L-30.3 17.5L-30.3 -17.5Z" stroke="#297EA6" fill="none" stroke-width="2"></path></g><g transform="translate(792 516)"><path d="M0 -39L33.8 -19.5L33.8 19.5L0 39L-33.8 19.5L-33.8 -19.5Z" stroke="#297EA6" fill="none" stroke-width="2"></path></g><g transform="translate(4 356)"><path d="M0 -43L37.2 -21.5L37.2 21.5L0 43L-37.2 21.5L-37.2 -21.5Z" stroke="#297EA6" fill="none" stroke-width="2"></path></g><g transform="translate(507 5)"><path d="M0 -35L30.3 -17.5L30.3 17.5L0 35L-30.3 17.5L-30.3 -17.5Z" stroke="#297EA6" fill="none" stroke-width="2"></path></g><g transform="translate(156 285)"><path d="M0 -45L39 -22.5L39 22.5L0 45L-39 22.5L-39 -22.5Z" stroke="#297EA6" fill="none" stroke-width="2"></path></g></g></svg>