<svg id="visual" viewBox="0 0 960 540" width="960" height="540" xmlns="http://www.w3.org/2000/svg" xmlns:xlink="http://www.w3.org/1999/xlink" version="1.1"><path d="M0 93L17.8 118.2C35.7 143.3 71.3 193.7 106.8 203.5C142.3 213.3 177.7 182.7 213.2 166.5C248.7 150.3 284.3 148.7 320 153.2C355.7 157.7 391.3 168.3 426.8 150.3C462.3 132.3 497.7 85.7 533.2 73.2C568.7 60.7 604.3 82.3 640 91.3C675.7 100.3 711.3 96.7 746.8 95.7C782.3 94.7 817.7 96.3 853.2 91.8C888.7 87.3 924.3 76.7 942.2 71.3L960 66L960 0L942.2 0C924.3 0 888.7 0 853.2 0C817.7 0 782.3 0 746.8 0C711.3 0 675.7 0 640 0C604.3 0 568.7 0 533.2 0C497.7 0 462.3 0 426.8 0C391.3 0 355.7 0 320 0C284.3 0 248.7 0 213.2 0C177.7 0 142.3 0 106.8 0C71.3 0 35.7 0 17.8 0L0 0Z" fill="#6198ff"></path><path d="M0 131L17.8 162.5C35.7 194 71.3 257 106.8 271.3C142.3 285.7 177.7 251.3 213.2 236C248.7 220.7 284.3 224.3 320 220.7C355.7 217 391.3 206 426.8 178C462.3 150 497.7 105 533.2 92.5C568.7 80 604.3 100 640 106.3C675.7 112.7 711.3 105.3 746.8 111.7C782.3 118 817.7 138 853.2 136.2C888.7 134.3 924.3 110.7 942.2 98.8L960 87L960 64L942.2 69.3C924.3 74.7 888.7 85.3 853.2 89.8C817.7 94.3 782.3 92.7 746.8 93.7C711.3 94.7 675.7 98.3 640 89.3C604.3 80.3 568.7 58.7 533.2 71.2C497.7 83.7 462.3 130.3 426.8 148.3C391.3 166.3 355.7 155.7 320 151.2C284.3 146.7 248.7 148.3 213.2 164.5C177.7 180.7 142.3 211.3 106.8 201.5C71.3 191.7 35.7 141.3 17.8 116.2L0 91Z" fill="#4988ff"></path><path d="M0 233L17.8 254.7C35.7 276.3 71.3 319.7 106.8 320.7C142.3 321.7 177.7 280.3 213.2 287.5C248.7 294.7 284.3 350.3 320 379C355.7 407.7 391.3 409.3 426.8 394C462.3 378.7 497.7 346.3 533.2 320.3C568.7 294.3 604.3 274.7 640 253.2C675.7 231.7 711.3 208.3 746.8 214.7C782.3 221 817.7 257 853.2 271.3C888.7 285.7 924.3 278.3 942.2 274.7L960 271L960 85L942.2 96.8C924.3 108.7 888.7 132.3 853.2 134.2C817.7 136 782.3 116 746.8 109.7C711.3 103.3 675.7 110.7 640 104.3C604.3 98 568.7 78 533.2 90.5C497.7 103 462.3 148 426.8 176C391.3 204 355.7 215 320 218.7C284.3 222.3 248.7 218.7 213.2 234C177.7 249.3 142.3 283.7 106.8 269.3C71.3 255 35.7 192 17.8 160.5L0 129Z" fill="#2d77ff"></path><path d="M0 320L17.8 334.3C35.7 348.7 71.3 377.3 106.8 383.5C142.3 389.7 177.7 373.3 213.2 383.2C248.7 393 284.3 429 320 445.3C355.7 461.7 391.3 458.3 426.8 444C462.3 429.7 497.7 404.3 533.2 387.2C568.7 370 604.3 361 640 349.3C675.7 337.7 711.3 323.3 746.8 323.3C782.3 323.3 817.7 337.7 853.2 356.5C888.7 375.3 924.3 398.7 942.2 410.3L960 422L960 269L942.2 272.7C924.3 276.3 888.7 283.7 853.2 269.3C817.7 255 782.3 219 746.8 212.7C711.3 206.3 675.7 229.7 640 251.2C604.3 272.7 568.7 292.3 533.2 318.3C497.7 344.3 462.3 376.7 426.8 392C391.3 407.3 355.7 405.7 320 377C284.3 348.3 248.7 292.7 213.2 285.5C177.7 278.3 142.3 319.7 106.8 318.7C71.3 317.7 35.7 274.3 17.8 252.7L0 231Z" fill="#0066ff"></path><path d="M0 411L17.8 420C35.7 429 71.3 447 106.8 452.5C142.3 458 177.7 451 213.2 458.3C248.7 465.7 284.3 487.3 320 492.7C355.7 498 391.3 487 426.8 478C462.3 469 497.7 462 533.2 454.8C568.7 447.7 604.3 440.3 640 431.3C675.7 422.3 711.3 411.7 746.8 411.7C782.3 411.7 817.7 422.3 853.2 433C888.7 443.7 924.3 454.3 942.2 459.7L960 465L960 420L942.2 408.3C924.3 396.7 888.7 373.3 853.2 354.5C817.7 335.7 782.3 321.3 746.8 321.3C711.3 321.3 675.7 335.7 640 347.3C604.3 359 568.7 368 533.2 385.2C497.7 402.3 462.3 427.7 426.8 442C391.3 456.3 355.7 459.7 320 443.3C284.3 427 248.7 391 213.2 381.2C177.7 371.3 142.3 387.7 106.8 381.5C71.3 375.3 35.7 346.7 17.8 332.3L0 318Z" fill="#005de8"></path><path d="M0 492L17.8 494.8C35.7 497.7 71.3 503.3 106.8 500.7C142.3 498 177.7 487 213.2 488.7C248.7 490.3 284.3 504.7 320 514.7C355.7 524.7 391.3 530.3 426.8 530.3C462.3 530.3 497.7 524.7 533.2 516.5C568.7 508.3 604.3 497.7 640 488.7C675.7 479.7 711.3 472.3 746.8 479.5C782.3 486.7 817.7 508.3 853.2 512C888.7 515.7 924.3 501.3 942.2 494.2L960 487L960 463L942.2 457.7C924.3 452.3 888.7 441.7 853.2 431C817.7 420.3 782.3 409.7 746.8 409.7C711.3 409.7 675.7 420.3 640 429.3C604.3 438.3 568.7 445.7 533.2 452.8C497.7 460 462.3 467 426.8 476C391.3 485 355.7 496 320 490.7C284.3 485.3 248.7 463.7 213.2 456.3C177.7 449 142.3 456 106.8 450.5C71.3 445 35.7 427 17.8 418L0 409Z" fill="#0055d1"></path><path d="M0 541L17.8 541C35.7 541 71.3 541 106.8 541C142.3 541 177.7 541 213.2 541C248.7 541 284.3 541 320 541C355.7 541 391.3 541 426.8 541C462.3 541 497.7 541 533.2 541C568.7 541 604.3 541 640 541C675.7 541 711.3 541 746.8 541C782.3 541 817.7 541 853.2 541C888.7 541 924.3 541 942.2 541L960 541L960 485L942.2 492.2C924.3 499.3 888.7 513.7 853.2 510C817.7 506.3 782.3 484.7 746.8 477.5C711.3 470.3 675.7 477.7 640 486.7C604.3 495.7 568.7 506.3 533.2 514.5C497.7 522.7 462.3 528.3 426.8 528.3C391.3 528.3 355.7 522.7 320 512.7C284.3 502.7 248.7 488.3 213.2 486.7C177.7 485 142.3 496 106.8 498.7C71.3 501.3 35.7 495.7 17.8 492.8L0 490Z" fill="#004cbb"></path></svg>